CeeLo Green - All I Need Is Love (Ft. The Muppets) {M4A+MP4} (1080p) x264 [VX] [P2PDL]
 
http://www.shotpix.com/images/69158352974788600436.jpg

Release Title: CeeLo Green - All I Need Is Love (ft. The Muppets) (2012)


                           1080p Full HD MP4 Video
                                      +
                            128 Kbps/VBR M4A Audio

General
Format                         : MPEG-4
Format profile                 : Base Media / Version 2
Codec ID                       : mp42
File size                      : 80.1 MiB
Duration                       : 6mn 53s

Video
ID                             : 1
Format                         : AVC
Format/Info                    : Advanced Video Codec
Width                          : 1 920 pixels
Height                         : 1 080 pixels
Display aspect ratio           : 16:9
Frame rate mode                : Variable
Frame rate                     : 23.976 fps
Color space                    : YUV
Chroma subsampling             : 4:2:0
Bit depth                      : 8 bits
Scan type                      : Progressive
Bits/(Pixel*Frame)             : 0.030
Stream size                    : 73.7 MiB (92%)
Writing library                : x264 core 128

Audio
ID                             : 2
Format                         : AAC
Format/Info                    : Advanced Audio Codec
Format profile                 : LC
Codec ID                       : 40
Duration                       : 6mn 53s
Bit rate mode                  : Variable
Bit rate                       : 126 Kbps
Maximum bit rate               : 213 Kbps
Channel(s)                     : 2 channels
Channel positions              : Front: L R
Sampling rate                  : 48.0 KHz
Compression mode               : Lossy
Stream size                    : 6.21 MiB (8%)

Subtitles                      : No

Screens:
 
http://www.shotpix.com/images/60895509265483500491.jpg 
http://www.shotpix.com/images/83441798871406120079.jpg

Thumbs: 
http://www.shotpix.com/images/99303518227005393105.jpg

------------------------------------------------------------------------

Notes:

* Recommended to use latest version VLC Media Player.
* Install shark007 codecs in case of any kind of problem in playback (For non-VLC Media Player users).
* Alternatively, install Core AVC codecs, the fastest decoder that there is coupled with Community Center Codec Pack and play on Windows Media Player Classic.

Greets to: VYTO, a2zRG, Chew,staff members at ExtraTorrent, TPB,KAT, 1337x, PublicHD, Ahashare, TorrentMafia, BTScene, P2PDL, and all others

Encoder Notes: Looking For Early Access To Anything You Can Provide DVDScr, R5, DVDRips, BluRay, Direct Audio, Early Music
Releases, Seedboxes, Links, Dedicated Servers anything u can provide, Advance / Promo CDs/DVDs. If You Got anything to
offer contact me at "prg@hush.com"

Facebook Fan Page: www . facebook . com / p2pdl